<svg width="28" height="28" viewBox="0 0 24 24" fill="none" xmlns="http://www.w3.org/2000/svg">
          <path fill-rule="evenodd" clip-rule="evenodd" d="M5.86181 2C6.37031 2 6.78255 2.40834 6.78255 2.91203V4.93994C10.254 4.63371 13.7461 4.63371 17.2175 4.93994V2.91203C17.2175 2.40834 17.6298 2 18.1383 2C18.6468 2 19.059 2.40834 19.059 2.91203V5.1209C20.8919 5.37761 22.34 6.81367 22.5851 8.64548L22.6914 9.4395C23.1382 12.7791 23.0997 16.165 22.5767 19.4939C22.3177 21.1428 20.9653 22.4095 19.2886 22.5731L17.824 22.7163C13.9508 23.0946 10.0493 23.0946 6.176 22.7163L4.71141 22.5731C3.03476 22.4095 1.68231 21.1428 1.42327 19.4939C0.900337 16.165 0.86174 12.7791 1.30865 9.4395L1.41491 8.64548C1.66004 6.81365 3.10811 5.37757 4.94108 5.12089V2.91203C4.94108 2.40834 5.35331 2 5.86181 2ZM6.40831 6.80677C10.1271 6.44352 13.8729 6.44352 17.5917 6.80677L18.7032 6.91537C19.7674 7.0193 20.6191 7.83523 20.7595 8.88516L20.8659 9.67918C20.9029 9.95657 20.9366 10.2343 20.9667 10.5123H3.03339C3.06345 10.2343 3.09703 9.95658 3.13415 9.67919L3.2404 8.88516C3.38091 7.83523 4.23267 7.0193 5.29674 6.91537L6.40831 6.80677ZM2.88701 12.3364C2.76648 14.6324 2.88523 16.9369 3.24283 19.2133C3.37277 20.0405 4.05114 20.6757 4.89213 20.7579L6.35672 20.901C10.1098 21.2676 13.8903 21.2676 17.6433 20.901L19.1079 20.7579C19.9488 20.6757 20.6272 20.0405 20.7572 19.2133C21.1148 16.9369 21.2335 14.6324 21.113 12.3364H2.88701Z" fill="black"></path>
          <path fill-rule="evenodd" clip-rule="evenodd" d="M5.86181 2C6.37031 2 6.78255 2.40834 6.78255 2.91203V4.93994C10.254 4.63371 13.7461 4.63371 17.2175 4.93994V2.91203C17.2175 2.40834 17.6298 2 18.1383 2C18.6468 2 19.059 2.40834 19.059 2.91203V5.1209C20.8919 5.37761 22.34 6.81367 22.5851 8.64548L22.6914 9.4395C23.1382 12.7791 23.0997 16.165 22.5767 19.4939C22.3177 21.1428 20.9653 22.4095 19.2886 22.5731L17.824 22.7163C13.9508 23.0946 10.0493 23.0946 6.176 22.7163L4.71141 22.5731C3.03476 22.4095 1.68231 21.1428 1.42327 19.4939C0.900337 16.165 0.86174 12.7791 1.30865 9.4395L1.41491 8.64548C1.66004 6.81365 3.10811 5.37757 4.94108 5.12089V2.91203C4.94108 2.40834 5.35331 2 5.86181 2ZM6.40831 6.80677C10.1271 6.44352 13.8729 6.44352 17.5917 6.80677L18.7032 6.91537C19.7674 7.0193 20.6191 7.83523 20.7595 8.88516L20.8659 9.67918C20.9029 9.95657 20.9366 10.2343 20.9667 10.5123H3.03339C3.06345 10.2343 3.09703 9.95658 3.13415 9.67919L3.2404 8.88516C3.38091 7.83523 4.23267 7.0193 5.29674 6.91537L6.40831 6.80677ZM2.88701 12.3364C2.76648 14.6324 2.88523 16.9369 3.24283 19.2133C3.37277 20.0405 4.05114 20.6757 4.89213 20.7579L6.35672 20.901C10.1098 21.2676 13.8903 21.2676 17.6433 20.901L19.1079 20.7579C19.9488 20.6757 20.6272 20.0405 20.7572 19.2133C21.1148 16.9369 21.2335 14.6324 21.113 12.3364H2.88701Z" fill="url(#paint0_linear_3_252)"></path>
          <defs>
            <linearGradient id="paint0_linear_3_252" x1="1" y1="12.5" x2="23" y2="12.5" gradientUnits="userSpaceOnUse">
              <stop stop-color="#B554CD"></stop>
              <stop offset="1" stop-color="#9036A6"></stop>
            </linearGradient>
          </defs>
        </svg>